<svg width="43" height="43" viewBox="0 0 43 43" fill="none" xmlns="http://www.w3.org/2000/svg">
<rect x="0.777832" width="42.2222" height="42.2222" rx="7" fill="white"/>
<path d="M29.1037 7.77783H14.6739C10.6874 7.77783 7.44434 11.0209 7.44434 15.0074V28.2085C7.44434 32.195 10.6874 35.4381 14.6739 35.4381H29.1037C33.0901 35.4381 36.3332 32.195 36.3332 28.2085V15.0074C36.3332 11.0209 33.0901 7.77783 29.1037 7.77783ZM9.9947 15.0074C9.9947 12.4276 12.0941 10.3282 14.6739 10.3282H29.1037C31.6834 10.3282 33.7829 12.4276 33.7829 15.0074V28.2085C33.7829 30.7883 31.6834 32.8877 29.1037 32.8877H14.6739C12.0941 32.8877 9.9947 30.7883 9.9947 28.2085V15.0074Z" fill="#2B2B2B"/>
<path d="M21.8883 28.3313C25.5954 28.3313 28.613 25.3153 28.613 21.6066C28.613 17.8978 25.597 14.8818 21.8883 14.8818C18.1796 14.8818 15.1636 17.8978 15.1636 21.6066C15.1636 25.3153 18.1796 28.3313 21.8883 28.3313ZM21.8883 17.4338C24.1903 17.4338 26.0627 19.3062 26.0627 21.6082C26.0627 23.9102 24.1903 25.7826 21.8883 25.7826C19.5863 25.7826 17.7139 23.9102 17.7139 21.6082C17.7139 19.3062 19.5863 17.4338 21.8883 17.4338Z" fill="#2B2B2B"/>
<path d="M29.2357 15.968C30.234 15.968 31.0476 15.156 31.0476 14.1561C31.0476 13.1562 30.2356 12.3442 29.2357 12.3442C28.2358 12.3442 27.4238 13.1562 27.4238 14.1561C27.4238 15.156 28.2358 15.968 29.2357 15.968Z" fill="#2B2B2B"/>
</svg>
