<svg width="151" height="44" viewBox="0 0 151 44" fill="none" xmlns="http://www.w3.org/2000/svg">
<path d="M7.25671 20.6994C7.25671 20.6579 7.25671 20.5335 7.33968 20.5749C7.38116 20.6164 7.38116 20.6994 7.2982 20.7409C7.25671 20.7409 7.25671 20.6994 7.25671 20.6994Z" fill="black"/>
<path d="M31.6895 37.7069C32.2703 37.7899 32.851 37.8728 33.4317 37.9558C35.8792 38.2877 38.3681 38.3291 40.8155 37.9558C41.6451 37.8314 42.4333 37.458 43.2629 37.2091C44.8392 36.7528 46.4155 36.6284 48.0333 37.2091C49.4437 37.7484 50.4807 38.7025 51.3933 39.9054C51.8496 40.4862 52.3059 41.1084 52.4719 41.8551C52.5133 41.9795 52.5548 42.104 52.4304 42.1869C52.3474 42.2699 52.223 42.1455 52.14 42.104C51.8496 41.8966 51.6007 41.6892 51.3104 41.5232C48.8215 39.6566 46.0007 38.7854 42.8896 39.0343C41.5622 39.1588 40.2348 39.4491 38.9073 39.4491C36.5844 39.4906 34.4273 38.9928 32.3532 38.1217C32.1043 38.0388 31.8554 37.9973 31.6895 37.7069Z" fill="#1986D8"/>
<path d="M66.4093 6.18077C66.2849 6.05632 66.2019 6.26373 66.036 6.26373C66.1604 5.4341 65.7456 4.85335 65.2478 4.35557C64.6256 3.77483 63.9204 3.31853 63.1737 2.94519C60.5189 1.57629 57.6152 1.16148 54.67 0.871105C52.8863 0.705178 51.0611 0.663696 49.2359 0.663696C47.4936 0.663696 45.7514 0.705178 44.0507 1.07851C40.5662 1.90815 37.621 3.65038 35.0906 6.13929C32.7676 8.42078 31.0254 11.0756 29.5735 13.9793C28.1632 16.8001 27.1676 19.7453 25.9646 22.649C24.5542 26.009 23.2683 29.452 21.5676 32.6876C20.7794 34.1809 19.9498 35.6743 18.7053 36.8773C17.7098 37.8313 16.5483 38.6195 15.3868 39.3662C13.1053 40.818 10.6993 41.8966 7.87859 41.6062C6.92451 41.5232 5.97043 41.3573 5.14079 40.818C4.56005 40.4447 4.06227 39.9469 4.02078 39.2417C3.89634 36.0891 6.96599 34.6787 8.87415 35.6328C9.70378 36.0476 10.326 35.7573 10.8238 34.9691C11.1971 34.3884 11.3631 33.7661 11.529 33.1024C11.8608 31.5261 10.9068 30.572 9.37193 30.9454C7.33932 31.4017 5.51413 32.3143 3.85486 33.6002C2.81781 34.3884 1.82225 35.301 1.24151 36.5039C0.702244 37.5825 0.411872 38.7025 0.992616 39.8639C1.53188 40.901 2.403 41.5647 3.44004 42.0625C4.64301 42.6017 5.92894 42.8092 7.21488 42.9336C9.57934 43.141 11.9438 42.9336 14.1838 42.021C15.8846 41.3573 17.2949 40.3202 18.7053 39.2002C21.5261 36.9602 24.5542 35.0106 27.8728 33.6417C28.2876 33.4758 28.6609 33.3098 29.1172 33.1854C28.0387 36.5039 26.2965 39.5321 25.4254 42.9336C26.338 42.9336 27.2091 42.6847 28.0802 42.3943C28.3706 42.3114 28.495 42.1454 28.578 41.8551C29.3246 38.8269 30.3202 35.8402 31.3573 32.895C31.4817 32.5632 31.6476 32.3972 31.9795 32.3143C33.5143 31.9409 35.0906 31.6091 36.6669 31.4017C39.1143 31.0698 41.6032 30.9869 44.0507 31.4432C46.3736 31.8995 48.4062 32.895 50.1485 34.4713C52.347 36.421 53.3426 38.9928 53.8404 41.7721C53.8818 41.8966 53.8404 42.104 54.0063 42.104C54.1722 42.104 54.1307 41.8966 54.1722 41.7721C55.6656 37.2091 57.2419 32.6876 58.8182 28.1661C60.8508 22.3587 62.8834 16.5512 64.9575 10.7438C65.4552 9.33338 66.036 7.96448 66.4923 6.5541C66.4508 6.42966 66.4923 6.26373 66.4093 6.18077ZM31.6891 25.9261C31.1498 27.4194 30.6106 28.9128 30.1128 30.4061C30.0298 30.6965 29.8639 30.8624 29.5321 30.9869C27.4994 31.692 25.5913 32.6461 23.7246 33.6832C23.6831 33.7246 23.6416 33.8076 23.5587 33.7246C24.015 32.7291 24.4713 31.7335 24.8861 30.6965C26.3794 27.1705 27.7483 23.5616 29.1587 20.0357C30.5276 16.6342 31.938 13.2327 33.8462 10.0801C34.7173 8.62819 35.6299 7.21781 36.7499 5.93188C37.5795 4.9778 38.658 4.35557 39.8195 3.65038C39.6121 4.18964 39.4462 4.64594 39.2803 5.10224C36.7914 12.0712 34.178 18.9571 31.6891 25.9261ZM63.5471 7.34226C62.7589 10.2875 62.0123 13.2327 61.1826 16.1779C59.7308 21.1557 58.03 26.0505 56.2463 30.9039C55.6656 32.5217 55.0848 34.1395 54.4626 35.7987C54.4626 35.8402 54.4211 35.8817 54.3796 35.9647C53.9233 35.0106 53.3841 34.098 52.6789 33.3513C50.8952 31.4432 48.6137 30.2402 46.1248 29.5765C43.7188 28.9128 41.2714 28.7883 38.824 28.9542C36.6254 29.1202 34.5099 29.452 32.3528 30.0743C32.6017 29.2446 32.8506 28.4565 33.141 27.6683C35.7543 20.2846 38.4921 12.9423 41.1469 5.55854C41.3958 4.89483 41.6447 4.27261 41.8521 3.6089C41.9351 3.40149 42.0595 3.27705 42.267 3.27705C43.8847 2.98667 45.544 2.86223 47.2033 2.73778C49.3603 2.61334 51.5174 2.61334 53.6744 2.77927C56.7856 3.06964 59.8137 3.65038 62.593 5.14372C63.0493 5.39261 63.5471 5.55854 63.8375 5.97336C64.0449 6.38818 63.6715 6.88596 63.5471 7.34226Z" fill="url(#paint0_linear_1_820)"/>
<path d="M8.7911 43.5973C8.25184 43.5973 7.71257 43.5558 7.13183 43.5144C5.47256 43.3899 4.26959 43.0995 3.14958 42.6018C1.82217 42.021 0.909567 41.1914 0.370304 40.1128C-0.376367 38.578 0.162896 37.1262 0.619195 36.2136C1.32438 34.8032 2.48587 33.8076 3.43995 33.0609C5.22367 31.6921 7.13183 30.7795 9.20592 30.3232C10.16 30.1157 11.0311 30.2817 11.5704 30.8209C12.1511 31.3602 12.317 32.2313 12.1096 33.1854C11.9852 33.7661 11.7778 34.5543 11.3215 35.2595C10.6163 36.338 9.62073 36.6699 8.54221 36.1306C7.79554 35.7573 6.79997 35.8402 5.97034 36.3795C5.05774 36.9602 4.55996 37.9973 4.60144 39.1588C4.60144 39.5736 4.85033 39.9054 5.43108 40.2373C6.17775 40.6936 7.04887 40.8595 7.8785 40.9425C10.16 41.1499 12.317 40.4862 14.9719 38.7854C16.3408 37.9143 17.3363 37.1262 18.2075 36.338C19.4104 35.218 20.2401 33.7247 20.9452 32.3143C22.3141 29.7009 23.4342 26.9217 24.5127 24.2253C24.7616 23.5616 25.0519 22.9394 25.3008 22.2757C25.6742 21.3631 26.0475 20.409 26.3794 19.4964C27.126 17.5468 27.9142 15.5142 28.9097 13.5645C30.569 10.246 32.3942 7.63264 34.5098 5.55855C37.372 2.98669 40.4832 1.24445 43.8847 0.456299C45.6269 0.0414818 47.3691 0 49.1943 0C51.3928 0 53.0936 0.0829635 54.6699 0.207409C57.5322 0.497781 60.6018 0.95408 63.3811 2.36446C64.3352 2.86224 65.0403 3.31854 65.6211 3.89928C65.9944 4.27262 66.4922 4.81188 66.6167 5.55855C66.7411 5.64152 66.8241 5.72448 66.8655 5.76596C67.1974 6.1393 67.0315 6.5956 66.99 6.76152C66.6996 7.63264 66.3678 8.50376 66.0774 9.33339C65.87 9.87266 65.6626 10.4534 65.4552 10.9927C63.5885 16.2194 61.5974 21.9024 59.3159 28.415C57.7396 32.9365 56.2047 37.4995 54.6699 42.021C54.5455 42.7262 54.0062 42.7677 53.8818 42.7677C53.6743 42.7677 53.218 42.6432 53.1351 41.938V41.8966C52.6373 38.8269 51.5173 36.5869 49.6506 34.9276C47.9913 33.4343 46.0417 32.4802 43.8432 32.0239C41.7691 31.6091 39.4876 31.6091 36.6668 31.9824C35.2565 32.1484 33.8046 32.4802 32.0624 32.895C31.9379 32.9365 31.9379 32.9365 31.8964 33.0609C30.7764 36.338 29.8638 39.0758 29.1586 41.9795C29.0342 42.5188 28.7438 42.8092 28.246 42.9751C27.3749 43.2655 26.4623 43.5558 25.4253 43.5558H25.3838H24.5956L24.8031 42.7677C25.3423 40.818 26.089 38.9928 26.8771 37.2091C27.292 36.255 27.7068 35.2595 28.0801 34.2639C25.0934 35.5084 22.1482 37.2921 19.0786 39.698C17.7926 40.7351 16.2578 41.8966 14.4326 42.6018C12.6489 43.2655 10.7822 43.5973 8.7911 43.5973ZM9.95259 31.4846C9.78666 31.4846 9.62073 31.4846 9.45481 31.5261C7.58813 31.9409 5.80441 32.8121 4.18662 34.0565C3.31551 34.7202 2.31995 35.5913 1.7392 36.7528C1.15846 37.9143 1.07549 38.744 1.49031 39.5736C1.90513 40.4032 2.56884 40.984 3.64736 41.4817C4.64292 41.8966 5.72145 42.1869 7.25627 42.3114C9.74518 42.5188 11.9437 42.2284 13.9348 41.4403C15.5941 40.7766 17.046 39.698 18.2904 38.7025C21.443 36.2136 24.5127 34.3469 27.6238 33.0609L27.8727 32.978C28.2046 32.8535 28.5779 32.6876 28.9512 32.6047L30.0298 32.3558L29.6979 33.4343C29.2001 34.9276 28.6194 36.338 27.9971 37.7484C27.3749 39.2002 26.7112 40.7351 26.2549 42.2699C26.7942 42.1869 27.3334 42.021 27.8727 41.8551C27.9142 41.8551 27.9557 41.8136 27.9557 41.8136C27.9557 41.8136 27.9557 41.7721 27.9971 41.7306C28.7853 38.5365 29.9053 35.301 30.7764 32.7291C30.9423 32.2313 31.3157 31.8995 31.8135 31.775C33.6387 31.3187 35.132 31.0283 36.5839 30.8209C39.5291 30.4476 41.935 30.4476 44.175 30.8624C46.581 31.3187 48.738 32.3972 50.6047 34.0565C52.3054 35.5913 53.4669 37.5825 54.1306 40.1128C55.4581 36.0891 56.8684 32.0654 58.2373 28.0417C60.5188 21.529 62.51 15.8045 64.3766 10.5778C64.584 9.9971 64.7915 9.45784 64.9989 8.87709C65.2478 8.21339 65.4966 7.54968 65.7455 6.88597H65.4137L65.4966 6.18078C65.5796 5.683 65.3722 5.30966 64.8744 4.81188C64.3766 4.3141 63.7544 3.89928 62.9248 3.48447C60.3114 2.15705 57.4077 1.74223 54.6284 1.45186C53.0521 1.28593 51.4343 1.24445 49.2773 1.24445C49.2358 1.24445 49.2358 1.24445 49.1943 1.24445C47.4936 1.24445 45.8343 1.28593 44.258 1.65927C43.055 1.94964 41.935 2.32298 40.815 2.86224L40.2757 4.39707C40.1513 4.72892 40.0683 5.01929 39.9439 5.30966C38.3676 9.5408 36.7913 13.8134 35.2565 17.9201C34.2609 20.6579 33.2238 23.3957 32.2698 26.1335C31.7305 27.6268 31.1912 29.1202 30.6935 30.6135C30.5275 31.1113 30.2372 31.4017 29.7394 31.5676C27.9142 32.1898 26.0475 33.061 24.0564 34.2224C23.7245 34.5128 23.3512 34.4298 23.1023 34.2224L22.6045 33.7661L22.9779 33.3928L23.3512 32.5217C23.6416 31.858 23.9319 31.1528 24.2223 30.4891C25.2594 28.0002 26.2964 25.4698 27.2505 22.9809C27.6653 21.9438 28.0801 20.8653 28.4949 19.8283C30.0298 15.9705 31.3986 12.8179 33.2238 9.78969C33.7216 8.96006 34.3439 7.92301 35.132 6.92745C33.2238 8.83561 31.5646 11.2416 30.0712 14.2697C29.1172 16.1364 28.3705 18.169 27.6238 20.0772C27.2505 20.9898 26.9186 21.9438 26.5038 22.8979C26.2549 23.5616 25.9645 24.1839 25.7157 24.8476C24.6371 27.5854 23.4756 30.3646 22.1067 33.0195C21.3186 34.5128 20.4475 36.0891 19.0786 37.3751C18.166 38.2047 17.1289 39.0343 15.6771 39.9469C13.7274 41.1914 11.0726 42.6018 7.79554 42.3114C6.84146 42.2284 5.76293 42.0625 4.76737 41.4403C4.43552 41.2329 3.43995 40.5691 3.35699 39.3662C3.27403 37.7484 3.97922 36.2965 5.30663 35.4669C6.5096 34.7202 8.00295 34.5958 9.12295 35.135C9.45481 35.301 9.82814 35.4254 10.2844 34.7202C10.6163 34.181 10.7822 33.5587 10.9067 33.0609C11.0311 32.5217 10.9481 32.0654 10.6993 31.8165C10.5333 31.5676 10.2844 31.4846 9.95259 31.4846ZM38.575 5.14374C38.0357 5.51707 37.5794 5.89041 37.1646 6.34671C35.9616 7.7156 35.0076 9.20895 34.3024 10.3704C32.5187 13.3156 31.1498 16.4683 29.6564 20.2431C29.2416 21.2801 28.8268 22.3587 28.412 23.3957C27.4164 25.8846 26.4208 28.415 25.3838 30.9454C25.1764 31.4017 24.969 31.8995 24.7616 32.3558C26.2964 31.5261 27.7897 30.9039 29.2831 30.3646C29.4075 30.3232 29.4075 30.3232 29.449 30.1987C29.9883 28.7054 30.4861 27.212 31.0668 25.7187C32.0624 22.9809 33.0579 20.2431 34.0535 17.5053C35.5883 13.4401 37.1231 9.29191 38.575 5.14374ZM54.3381 37.3336L53.7988 36.255C53.301 35.2595 52.8447 34.4713 52.2225 33.8076C50.6047 32.1069 48.5721 30.9039 45.9587 30.1987C43.8017 29.618 41.4787 29.4106 38.8654 29.618C36.6668 29.7839 34.5927 30.1157 32.5187 30.6965L31.3986 30.9869L31.772 29.8669C31.8549 29.618 31.9379 29.3276 32.0209 29.0787C32.1868 28.5394 32.3527 28.0002 32.5601 27.4609C34.1364 23.0224 35.7542 18.5009 37.372 14.1453C38.4505 11.2001 39.5291 8.29635 40.5661 5.35114C40.6491 5.14374 40.732 4.89485 40.815 4.68744C40.9809 4.27262 41.1469 3.81632 41.2713 3.4015C41.3957 2.9452 41.6861 2.69631 42.1424 2.61335C43.5943 2.36446 45.1291 2.19853 47.1617 2.07409C49.6091 1.94964 51.7662 1.94964 53.7158 2.11557C57.4907 2.44742 60.3944 3.23558 62.8833 4.56299C62.9663 4.60447 63.0492 4.64596 63.1322 4.68744C63.547 4.89485 64.0448 5.14374 64.3352 5.60004C64.7085 6.18078 64.4596 6.76152 64.2937 7.13486C64.2522 7.25931 64.2107 7.34227 64.1692 7.46671L63.9203 8.33783C63.2566 10.9512 62.5514 13.6475 61.7633 16.3023C60.2699 21.4875 58.4862 26.4654 56.827 31.0698C56.4536 32.1484 56.0388 33.1854 55.6655 34.2639L55.0432 35.9647C55.0432 36.0062 55.0018 36.0891 54.9603 36.1721L54.3381 37.3336ZM40.6906 28.2905C42.7232 28.2905 44.5484 28.5394 46.2906 28.9957C49.1528 29.7839 51.3929 31.0698 53.1351 32.9365C53.5914 33.3928 53.9647 33.9321 54.2551 34.4713L54.4625 33.8906C54.8358 32.8121 55.2092 31.775 55.624 30.6965C57.3247 26.092 59.067 21.1557 60.5603 16.012C61.307 13.3986 62.0122 10.7023 62.7174 8.08894L62.9663 7.21782C63.0077 7.0519 63.0907 6.88597 63.1322 6.72004C63.1737 6.5956 63.2566 6.38819 63.2566 6.30523C63.1737 6.18078 62.8418 6.01485 62.5514 5.89041C62.427 5.84893 62.344 5.80744 62.2611 5.72448C59.8966 4.43855 57.2003 3.73336 53.5499 3.4015C51.6417 3.23558 49.5677 3.23558 47.1617 3.36002C45.2121 3.48447 43.7602 3.60891 42.3498 3.8578C42.1839 4.3141 42.0595 4.72892 41.8935 5.14374C41.8106 5.35114 41.7276 5.55855 41.6446 5.80744C40.6491 8.71117 39.5706 11.6149 38.492 14.5601C36.9157 18.9157 35.2565 23.4372 33.7216 27.8757C33.5557 28.2905 33.4313 28.7469 33.3068 29.1617C35.132 28.7469 36.9157 28.4565 38.8239 28.332C39.4461 28.2906 40.0683 28.2905 40.6906 28.2905Z" fill="url(#paint1_linear_1_820)"/>
<path d="M61.1828 6.13928C61.0998 6.05632 60.9754 6.18077 60.8924 6.22225C59.1916 6.92744 57.8227 8.08893 56.7442 9.58227C55.4583 11.3245 54.7116 13.3156 53.9235 15.3067C53.799 15.5971 53.7575 15.929 53.5501 16.2608C53.5501 15.5142 53.4257 14.809 53.5501 14.1453C53.799 12.9008 54.2138 11.7393 54.6286 10.5363C55.0435 9.33338 55.7072 8.25485 56.1635 7.09336C56.4124 6.42966 56.4953 5.76595 56.3294 5.06076C56.2464 4.77039 56.122 4.64594 55.8316 4.81187C55.4583 4.97779 55.1679 5.22668 54.919 5.55854C54.5042 6.13928 54.2553 6.84447 54.0479 7.50818C53.4672 9.58227 52.8449 11.6564 51.9738 13.6475C51.8909 13.8549 51.8079 14.0623 51.642 14.2282C51.1857 14.726 50.8123 15.2653 50.439 15.846C50.3975 15.8045 50.3975 15.8045 50.356 15.763C50.3975 15.6386 50.439 15.4727 50.4805 15.3482C51.3101 13.1082 51.9738 10.8682 51.642 8.42078C51.5175 7.34225 51.0612 6.38817 50.2731 5.6415C50.0657 5.43409 49.9827 5.39261 49.8582 5.72447C49.1945 7.4667 48.5723 9.16745 47.9501 10.9097C46.7056 14.3527 45.4612 17.7542 44.2167 21.1557C44.0508 21.6535 44.0508 21.612 44.5486 21.6535C45.2538 21.6949 45.959 21.8194 46.6227 21.8609C47.1205 21.8609 47.1205 22.1098 47.079 22.4831C46.9545 23.6031 47.1619 24.6816 47.6597 25.6772C48.1575 26.6727 48.2819 26.7142 49.1945 26.092C49.236 26.092 49.236 26.0505 49.2775 26.0505C50.522 25.2624 51.476 24.1424 52.1812 22.8564C52.2642 22.732 52.2642 22.6075 52.5131 22.649C53.3012 22.7735 54.1309 22.8564 54.9605 22.9809C55.2094 23.0224 55.2509 22.9394 55.3338 22.732C55.7901 21.4046 56.2464 20.0357 56.7027 18.7083C58.1546 14.6016 59.4405 10.4119 61.0168 6.34669C61.1828 6.34669 61.3072 6.22225 61.1828 6.13928ZM50.6049 18.0445C50.9783 17.6297 51.3516 17.2149 51.8079 16.6756C51.8079 17.2979 51.8079 17.7957 51.8079 18.252C51.8079 18.4594 51.642 18.5008 51.5175 18.5838C51.3101 18.7083 51.1027 18.8327 50.9368 18.9571C50.8123 18.7497 50.7294 18.5423 50.5634 18.3764C50.4805 18.2105 50.522 18.1275 50.6049 18.0445ZM50.2316 16.3023C49.9827 16.6342 49.7753 17.0075 49.4849 17.3808C49.1945 17.049 49.1116 16.7171 49.319 16.3438C49.5264 16.0534 49.7753 15.9705 50.1071 16.0119C50.3145 16.0534 50.3145 16.1364 50.2316 16.3023ZM50.0657 9.91412C50.2316 11.0756 50.0242 12.2371 49.7338 13.3156C49.5679 13.8964 49.3605 14.4356 48.7797 14.7675C48.5308 14.8919 48.3234 15.1823 48.0331 15.4727C48.7382 13.5645 49.4019 11.7393 50.0657 9.91412ZM48.2405 19.206C48.1575 19.372 48.033 19.5379 47.9501 19.7038C47.6182 20.326 47.6182 20.326 46.913 20.2431C46.2908 20.1601 46.2908 20.1601 46.4982 19.5379C46.7471 18.8327 47.0375 18.086 47.2864 17.3394C47.5353 17.9201 47.8671 18.4179 48.199 18.8742C48.3649 18.9986 48.3234 19.0816 48.2405 19.206ZM48.5308 23.7275C48.3649 23.1883 48.5308 22.6905 48.5308 22.1927C48.5308 22.0683 48.6138 22.0683 48.6968 22.1098C48.8627 22.1512 48.9871 22.1512 49.1945 22.1927C48.9871 22.6905 48.7797 23.1883 48.5308 23.7275ZM49.5264 20.5749C48.9456 20.5334 48.9042 20.492 49.1531 19.9942C49.236 19.8283 49.3605 19.7038 49.4849 19.4964C49.5679 19.8283 49.6508 20.0771 49.7338 20.326C49.8168 20.5749 49.7338 20.5749 49.5264 20.5749ZM50.9368 22.7735C50.6879 23.1468 50.439 23.5201 50.1486 23.852C50.1071 23.852 50.1071 23.8105 50.0657 23.8105C50.1901 23.3957 50.3145 22.9809 50.439 22.6075C50.4805 22.4831 50.4805 22.4001 50.6464 22.4001C50.7708 22.4001 50.9783 22.4001 51.0612 22.4831C51.1442 22.6075 50.9783 22.6905 50.9368 22.7735ZM51.0197 20.7823C51.1442 20.4505 51.3516 20.2431 51.8909 20.0357C51.8909 20.0357 51.9323 20.0357 51.9323 20.0771C51.8909 20.9897 52.1397 20.9897 51.0197 20.7823ZM53.5916 16.4268C53.799 16.3853 54.0064 16.4268 54.1309 16.6756C54.2553 17.0075 54.1723 17.2564 53.9235 17.4638C53.799 17.5882 53.6331 17.6712 53.4257 17.7957C53.4672 17.4223 53.4672 17.0905 53.5086 16.8001C53.5086 16.6756 53.4257 16.4682 53.5916 16.4268ZM54.4627 21.0727C54.4212 21.2386 54.3383 21.2801 54.1724 21.2386C54.1309 21.2386 54.1309 21.2386 54.0894 21.2386C53.7575 21.1557 53.1768 21.2386 53.1768 21.0312C53.1353 20.6164 53.3012 20.2016 53.3012 19.7453C53.3012 19.7038 53.3427 19.6623 53.3842 19.6623C54.0064 19.4134 54.5872 19.0401 55.2094 18.6668C54.9605 19.4964 54.7116 20.2846 54.4627 21.0727ZM57.8227 10.9926C57.159 12.9008 56.6613 14.8919 55.8731 16.8416C55.8316 16.3853 55.7487 16.0534 55.6242 15.7216C55.4583 15.4312 55.4998 15.1823 55.6242 14.8919C56.1635 13.6475 56.7027 12.403 57.5324 11.283C57.5739 11.1586 57.6568 11.0341 57.8227 10.9926C57.7813 10.9097 57.7813 10.8267 57.8642 10.8682C57.9057 10.9097 57.8642 10.9926 57.8227 10.9926Z" fill="#1986D8"/>
<path d="M87.6154 24.0965L88.3206 21.4002H78.8213L82.3058 8.45789H85.1265L82.3058 18.8698H87.325L90.1043 8.45789H92.9666L90.1458 18.8698H91.6806L89.9384 24.0965H87.6154Z" fill="#1986D8"/>
<path d="M91.3899 24.0965L92.7588 18.8698H93.8788C94.667 17.8742 95.3721 16.7957 95.9529 15.5512C96.5336 14.3068 97.1559 12.606 97.7366 10.449L98.2759 8.41638H107.734L104.954 18.8283H106.489L104.747 24.055H102.341L103.046 21.3587H94.8329L93.8788 24.055H91.3899V24.0965ZM96.9484 18.8283H102.092L104.208 10.9053H100.35L99.8522 12.5646C99.1055 15.2609 98.1514 17.335 96.9484 18.8283Z" fill="#1986D8"/>
<path d="M106.614 21.3587L115.657 8.29193H118.395L120.469 21.3587H117.524L117.109 18.455H111.633L109.684 21.3587H106.614ZM113.376 15.9661H116.819L116.238 11.6934L113.376 15.9661Z" fill="#1986D8"/>
<path d="M122.544 21.3587L126.028 8.41638H131.047C132.499 8.41638 133.619 8.70675 134.324 9.32898C135.071 9.90972 135.444 10.6979 135.444 11.6105C135.444 12.4401 135.195 13.1453 134.698 13.6846C134.2 14.2238 133.536 14.5972 132.665 14.8046C133.868 15.3853 134.49 16.2564 134.49 17.4179C134.49 18.6209 133.992 19.575 133.038 20.2802C132.043 20.9853 130.674 21.3587 128.932 21.3587H122.544ZM125.986 18.8698H129.347C130.052 18.8698 130.632 18.7453 131.047 18.455C131.462 18.1646 131.67 17.7498 131.67 17.252C131.67 16.8787 131.504 16.5883 131.213 16.3394C130.923 16.132 130.467 16.0075 129.886 16.0075H126.775L125.986 18.8698ZM127.397 13.6431H130.259C131.794 13.6431 132.582 13.1038 132.582 12.0668C132.582 11.6934 132.416 11.4445 132.126 11.1957C131.835 10.9468 131.379 10.8638 130.757 10.8638H128.102L127.397 13.6431Z" fill="#1986D8"/>
<path d="M143.201 21.6076C141.418 21.6076 140.007 21.0683 138.929 19.9898C137.85 18.9113 137.311 17.5424 137.311 15.8831C137.311 14.5972 137.643 13.3527 138.265 12.1912C138.887 11.0297 139.841 10.0757 141.044 9.32899C142.247 8.58232 143.616 8.20898 145.109 8.20898C146.893 8.20898 148.304 8.74825 149.382 9.82677C150.461 10.9053 151 12.2742 151 13.9335C151 15.2194 150.668 16.4639 150.046 17.6253C149.424 18.7868 148.47 19.7409 147.267 20.4876C146.064 21.2343 144.695 21.6076 143.201 21.6076ZM143.533 18.9528C144.819 18.9528 145.898 18.455 146.769 17.4179C147.64 16.3809 148.055 15.3024 148.055 14.0994C148.055 13.1038 147.764 12.3157 147.184 11.6935C146.603 11.0712 145.815 10.7809 144.778 10.7809C143.492 10.7809 142.413 11.2786 141.542 12.3157C140.671 13.3527 140.256 14.4312 140.256 15.6342C140.256 16.6298 140.546 17.4179 141.127 18.0402C141.708 18.6624 142.496 18.9528 143.533 18.9528Z" fill="#1986D8"/>
<path d="M74.4031 37.6239C73.6811 37.6239 73.1138 37.4692 72.7012 37.2113L73.5779 36.1283C73.8358 36.283 74.1452 36.3862 74.5578 36.3862C75.1251 36.3862 75.6408 36.0767 76.1565 35.4063L74.3515 29.0629H75.9502L77.2911 33.9107L80.8496 29.0629H82.5515L77.6521 35.6126C76.5691 36.9535 75.4861 37.6239 74.4031 37.6239Z" fill="#3D3D3D"/>
<path d="M83.8929 37.5208L86.1621 29.1145H87.6577L86.5231 33.3435L91.4741 29.1145H93.4854L89.2049 32.7246L91.371 37.5208H89.7206L88.0187 33.6013L86.0074 35.3032L85.4401 37.5208H83.8929Z" fill="#3D3D3D"/>
<path d="M94.9815 37.5208L97.2507 29.1145H99.8809C100.861 29.1145 101.634 29.3208 102.202 29.7334C102.769 30.146 103.078 30.7648 103.078 31.59C103.078 32.5699 102.717 33.3435 101.944 33.9108C101.17 34.478 100.19 34.7875 98.9526 34.7875H97.1991L96.4771 37.5208H94.9815ZM97.5601 33.4466H99.0557C99.8293 33.4466 100.448 33.2919 100.912 32.9824C101.377 32.673 101.583 32.2604 101.583 31.6931C101.583 31.2805 101.428 30.9711 101.119 30.7648C100.809 30.5585 100.397 30.4554 99.8809 30.4554H98.3853L97.5601 33.4466Z" fill="#3D3D3D"/>
<path d="M104.625 37.5208L110.608 29.0114H112L113.444 37.4693H111.949L111.639 35.4579H107.668L106.276 37.4693H104.625V37.5208ZM108.545 34.1686H111.433L110.917 30.7648L108.545 34.1686Z" fill="#3D3D3D"/>
<path d="M117.105 37.5208L119.374 29.1145H120.87L118.601 37.5208H117.105ZM118.24 28.3925L118.601 27H120.096L119.735 28.3925H118.24ZM120.664 28.3925L121.025 27H122.52L122.108 28.3925H120.664Z" fill="#3D3D3D"/>
<path d="M123.243 37.5208L125.512 29.1145H127.007L126.079 32.6214H130.05L130.978 29.1145H132.474L130.205 37.5208H128.709L129.638 33.9623H125.666L124.738 37.5208H123.243Z" fill="#3D3D3D"/>
<path d="M134.743 37.5208L137.012 29.1145H138.456L136.806 35.2001L142.633 29.1145H144.026L141.757 37.5208H140.313L141.911 31.4353L136.084 37.5208H134.743Z" fill="#3D3D3D"/>
<path d="M77.0261 3.44205L74.6755 2.70007L61.9879 42.8956L64.3386 43.6376L77.0261 3.44205Z" fill="#1986D8"/>
<defs>
<linearGradient id="paint0_linear_1_820" x1="28.7689" y1="32.4618" x2="65.4532" y2="12.0095" gradientUnits="userSpaceOnUse">
<stop stop-color="#1986D8"/>
<stop offset="1" stop-color="#F5C305"/>
</linearGradient>
<linearGradient id="paint1_linear_1_820" x1="28.7698" y1="32.4637" x2="65.4541" y2="12.0114" gradientUnits="userSpaceOnUse">
<stop stop-color="#1986D8"/>
<stop offset="1" stop-color="#F5C305"/>
</linearGradient>
</defs>
</svg>
