<svg width="56" height="58" viewBox="0 0 56 58" fill="none" xmlns="http://www.w3.org/2000/svg">
<g clip-path="url(#clip0_1_633)">
<path d="M43.3689 21.0615V27.9005H41.3248C39.1727 27.9581 37.313 29.4161 36.752 31.4876C36.2488 31.7341 35.7642 32.0147 35.2979 32.3267C31.3546 31.3539 29.4527 34.8886 28.5336 36.7949C26.0417 40.2247 27.1033 43.1431 28.365 44.1997C28.2965 44.7556 28.2886 45.3194 28.3439 45.8779C28.1095 46.1218 27.8961 46.3892 27.7117 46.6751H10.7264C11.3481 45.5423 11.6668 44.2706 11.6536 42.983V21.2296C11.6536 20.9884 11.7485 20.7577 11.917 20.5898C12.0883 20.4194 12.3201 20.325 12.5598 20.3276H42.6314C43.0371 20.3302 43.3635 20.6576 43.3689 21.0615ZM4.13022 46.6539C6.09795 46.3524 7.52297 44.627 7.43868 42.6472V21.2294C7.43868 19.8764 7.97868 18.5784 8.94017 17.6239C9.89902 16.6668 11.2029 16.1319 12.5595 16.1319H34.3071V6.91728C34.3071 6.72324 34.2307 6.53969 34.0937 6.40071C33.9541 6.26436 33.767 6.18832 33.5721 6.18832H18.2362H18.2389C18.0439 6.18832 17.8569 6.10965 17.7199 5.9733L11.9327 0.212399C11.7957 0.0760423 11.6087 0 11.4138 0H0.734899C0.329241 0 0 0.325153 0 0.72894V42.9825C0.0131713 44.0287 0.466247 45.0252 1.25387 45.7226C2.03888 46.4228 3.08182 46.7588 4.13022 46.6539ZM43.6002 41.5564C41.6878 41.5878 40.1521 43.1428 40.1521 45.0491C40.1521 46.9528 41.6877 48.5077 43.6002 48.5392C45.5152 48.5077 47.0483 46.9528 47.0483 45.0491C47.0483 43.1428 45.5152 41.5879 43.6002 41.5564ZM55.675 48.6679C56.6232 49.2972 55.2324 50.5978 54.8531 51.5208C54.1366 52.4858 53.8416 54.143 52.6825 53.5556C52.1978 53.3878 51.3971 52.7584 50.8913 53.2619C49.7981 54.2373 48.5127 54.9794 47.1192 55.4436C46.8268 55.5353 46.6134 55.7897 46.5713 56.0939C46.508 56.7232 46.6556 58.0028 45.7283 57.9818H43.621C42.3988 57.856 40.7972 58.4223 40.7129 57.1218C40.6497 56.6183 40.7972 55.6114 40.1018 55.4436C38.7031 54.9795 37.4123 54.2374 36.3086 53.2619C35.8239 52.7165 34.8967 53.4507 34.412 53.6395C33.4005 54.122 32.9369 52.3179 32.3468 51.5208C31.9464 50.5978 30.5977 49.2972 31.525 48.6679L32.4943 47.9966C33.1265 47.3883 32.5786 46.3185 32.5365 45.3954C32.3468 44.3256 33.2318 42.8782 32.4943 42.06L31.525 41.4097C30.5977 40.7804 31.9464 39.4378 32.3468 38.5568C33.0633 37.5708 33.3584 35.9136 34.5385 36.501C35.0231 36.6898 35.8028 37.3191 36.3086 36.8157C37.4123 35.8376 38.7031 35.0955 40.1018 34.634C41.2397 34.2774 40.1018 32.1587 41.4926 32.0958H45.7283C47.0559 32.1168 46.0233 34.2984 47.1191 34.634C48.5126 35.0955 49.7981 35.8376 50.8913 36.8157C51.397 37.3191 52.3032 36.6478 52.809 36.4381C53.7994 35.9556 54.263 37.7597 54.853 38.5567C55.2323 39.4378 56.6232 40.7803 55.6749 41.4097L54.7267 42.06C53.968 42.7942 54.832 44.0529 54.6213 45.0388C54.832 46.0247 53.968 47.2834 54.7267 47.9965L55.675 48.6679ZM51.3339 45.0388V45.0362C51.2891 40.8224 47.8436 37.432 43.6106 37.432C39.3776 37.432 35.9319 40.8251 35.8874 45.0389C35.9322 49.2527 39.3776 52.6458 43.6106 52.6458C47.8463 52.6458 51.2921 49.2526 51.3339 45.0388Z" fill="url(#paint0_linear_1_633)"/>
</g>
<defs>
<linearGradient id="paint0_linear_1_633" x1="28" y1="0" x2="28" y2="58" gradientUnits="userSpaceOnUse">
<stop stop-color="#F5C305"/>
<stop offset="1" stop-color="#268BE4"/>
</linearGradient>
<clipPath id="clip0_1_633">
<rect width="56" height="58" fill="white"/>
</clipPath>
</defs>
</svg>
