<svg width="54" height="50" viewBox="0 0 54 50" fill="none" xmlns="http://www.w3.org/2000/svg">
<path d="M48.2283 27.31C48.2113 26.2403 47.348 25.3826 46.2898 25.3826C45.2316 25.3826 44.3708 26.2403 44.3537 27.31V42.542C44.3537 43.624 45.2218 44.499 46.2898 44.499C47.3602 44.499 48.2283 43.6241 48.2283 42.542V27.31ZM40.2476 0.001306H52.3151C52.7589 -0.00362308 53.188 0.171369 53.5026 0.48685C53.8196 0.804798 53.9976 1.23366 54 1.68467V48.3165C53.9976 48.7676 53.8196 49.1964 53.5026 49.5144C53.188 49.8298 52.7589 50.0048 52.3151 49.9999H40.2476C39.8063 49.9999 39.382 49.8224 39.0699 49.507C38.7578 49.1915 38.5822 48.7626 38.5822 48.3165V1.68466C38.5822 1.23855 38.7578 0.809701 39.0699 0.49422C39.382 0.178739 39.8063 0.001306 40.2476 0.001306ZM46.2899 16.4454C47.3336 16.406 48.1577 15.5409 48.1577 14.4884C48.1577 13.4335 47.3336 12.5684 46.2899 12.529C45.2487 12.5684 44.4246 13.4335 44.4246 14.4884C44.4246 15.5409 45.2487 16.406 46.2899 16.4454ZM46.2899 9.41589C47.3336 9.37892 48.1577 8.5138 48.1577 7.4589C48.1577 6.40399 47.3336 5.53888 46.2899 5.50191C45.2487 5.53888 44.4246 6.40399 44.4246 7.4589C44.4246 8.5138 45.2487 9.37891 46.2899 9.41589ZM27.0002 16.4454C28.0438 16.4109 28.8753 15.5433 28.8753 14.4884C28.8753 13.4311 28.0438 12.5635 27.0002 12.529C25.9566 12.5635 25.1251 13.4311 25.1251 14.4884C25.1251 15.5433 25.9566 16.4109 27.0002 16.4454ZM28.9363 42.5414V27.3093C28.9217 26.2397 28.0585 25.3819 27.0002 25.3819C25.9419 25.3819 25.0788 26.2397 25.0641 27.3093V42.5414C25.0787 43.6111 25.9419 44.4688 27.0002 44.4688C28.0585 44.4688 28.9216 43.6111 28.9363 42.5414ZM27.0002 9.41589C28.0438 9.38138 28.8729 8.51626 28.8729 7.4589C28.8729 6.40153 28.0438 5.53642 27.0002 5.50191C25.9566 5.53641 25.1275 6.40153 25.1275 7.4589C25.1275 8.51626 25.9566 9.38137 27.0002 9.41589ZM19.2923 48.316V1.68408C19.2923 1.23797 19.4679 0.809127 19.78 0.493646C20.0921 0.178165 20.5164 0.000706671 20.9577 0.000706671H33.042C33.4834 0.000706671 33.9076 0.178165 34.2197 0.493646C34.5319 0.809127 34.7074 1.23799 34.7074 1.68408V48.316C34.7074 48.7621 34.5319 49.1909 34.2197 49.5064C33.9076 49.8219 33.4833 49.9993 33.042 49.9993H20.9577C20.5164 49.9993 20.0921 49.8219 19.78 49.5064C19.4679 49.1909 19.2923 48.762 19.2923 48.316ZM7.70985 16.4448C8.75349 16.4103 9.58252 15.5427 9.58252 14.4878C9.58252 13.4304 8.75349 12.5629 7.70985 12.5284C6.66622 12.5678 5.84205 13.4329 5.84205 14.4878C5.84205 15.5403 6.66622 16.4054 7.70985 16.4448ZM9.64594 42.5408V27.3087C9.62887 26.239 8.76816 25.3813 7.70985 25.3813C6.65161 25.3813 5.78843 26.239 5.77133 27.3087V42.5408C5.7884 43.6104 6.65161 44.4682 7.70985 44.4682C8.7681 44.4682 9.62884 43.6104 9.64594 42.5408ZM7.70985 9.41526C8.75349 9.38075 9.58252 8.51563 9.58252 7.45827C9.58252 6.4009 8.75349 5.53579 7.70985 5.50128C6.66622 5.53825 5.84205 6.40336 5.84205 7.45827C5.84205 8.51317 6.66622 9.37828 7.70985 9.41526ZM15.4178 1.68093V48.3153C15.4178 48.7614 15.2422 49.1903 14.9301 49.5058C14.618 49.8212 14.1937 49.9987 13.7524 49.9987H1.68489C1.2411 50.0036 0.811976 49.8286 0.49743 49.5131C0.180444 49.1952 0.00244071 48.7663 0 48.3153V1.68346C0.00243821 1.23243 0.180438 0.803587 0.49743 0.485645C0.811982 0.170164 1.24113 -0.00482648 1.68489 0.000101328H13.7524C14.1937 0.000101328 14.618 0.177559 14.9301 0.49304C15.2422 0.808521 15.4178 1.23739 15.4178 1.68348V1.68093Z" fill="url(#paint0_linear_1_636)"/>
<defs>
<linearGradient id="paint0_linear_1_636" x1="27" y1="0" x2="27" y2="50" gradientUnits="userSpaceOnUse">
<stop stop-color="#F5C305"/>
<stop offset="1" stop-color="#268BE4"/>
</linearGradient>
</defs>
</svg>
