<svg width="54" height="55" viewBox="0 0 54 55" fill="none" xmlns="http://www.w3.org/2000/svg">
<path d="M38.4082 34.1953C42.3646 34.0789 47.1684 34.1958 51.1523 34.1553C52.7166 34.1553 54 35.4361 54 37.0029V48.4229C54 51.6626 51.3677 54.2957 48.1406 54.2959H5.85938C2.63225 54.2957 0 51.6626 0 48.4229V37.0029C0 35.4387 1.28084 34.1553 2.84766 34.1553C6.27547 34.1502 11.6312 34.1603 15.1191 34.1553C16.4429 34.1553 17.5764 35.0464 17.9004 36.3145L18.8047 39.9463C18.8199 40.0146 18.8858 40.0684 18.9541 40.0684H35.0439C35.1123 40.0684 35.1807 40.0146 35.1934 39.9463L36.1123 36.3145C36.3832 35.1957 37.2869 34.37 38.4082 34.1953ZM24.6006 45.834C23.859 45.834 23.251 46.441 23.251 47.1826C23.251 47.9242 23.859 48.5322 24.6006 48.5322H29.4072C30.1488 48.5322 30.7559 47.9242 30.7559 47.1826C30.7558 46.4411 30.1488 45.834 29.4072 45.834H24.6006ZM23.249 5.64746C25.1955 7.97378 28.628 10.3281 28.4736 13.707V15.2861C28.4737 16.9464 29.8095 18.2957 31.4697 18.2959H33.0625C36.4439 18.1417 38.7773 21.5458 41.1084 23.4922V31.458C40.6876 31.4479 38.811 31.4656 38.4082 31.4707C36.0593 31.6732 34.0748 33.3333 33.4951 35.6543L33.0625 37.3682H20.9404L20.5225 35.6543C19.9023 33.184 17.688 31.4552 15.124 31.4551L15.1211 31.457C13.3443 31.4596 8.25944 31.4545 6.56348 31.457V8.64355C6.56368 6.99591 7.91286 5.64746 9.56055 5.64746H23.249ZM44.4414 0C46.0892 0 47.4258 1.33657 47.4258 2.98438L47.4277 31.4551H44.7275V2.98438C44.7275 2.82252 44.6061 2.70137 44.4443 2.70117H18.9404C17.1585 2.6632 17.1762 0.0329057 18.9404 0H44.4414ZM15.9316 26.4336C14.1548 26.469 14.1623 29.1009 15.9316 29.1338H31.7539C33.5303 29.098 33.5227 26.4668 31.7539 26.4336H15.9316ZM15.9316 20.5762C14.1548 20.6116 14.1623 23.2444 15.9316 23.2773H31.7539C33.5303 23.2416 33.5228 20.6094 31.7539 20.5762H15.9316ZM27.0957 5.82129C34.1346 6.6494 40.1494 12.6657 40.9746 19.6846C40.0001 18.8037 38.5897 17.3031 37.4102 16.7285C35.6713 15.668 33.482 15.5163 31.4697 15.5947V15.5967C31.3077 15.5967 31.1738 15.4598 31.1738 15.2852C31.2523 13.278 31.097 11.1033 30.0391 9.37207C29.4592 8.17745 27.9966 6.80827 27.0957 5.82129Z" fill="url(#paint0_linear_1_638)"/>
<defs>
<linearGradient id="paint0_linear_1_638" x1="23.8361" y1="5.64686" x2="27.5294" y2="54.0002" gradientUnits="userSpaceOnUse">
<stop stop-color="#F5C305"/>
<stop offset="1" stop-color="#268BE4"/>
</linearGradient>
</defs>
</svg>
