<svg width="53" height="55" viewBox="0 0 53 55" fill="none" xmlns="http://www.w3.org/2000/svg">
<path fill-rule="evenodd" clip-rule="evenodd" d="M6.11538 25.463H4.58653C2.05354 25.463 0 27.5152 0 30.0464V51.9444C0 53.6321 1.36887 55 3.05769 55C11.2525 55 41.7472 55 49.9423 55C50.7532 55 51.5308 54.6781 52.1045 54.1051C52.6778 53.5321 53 52.7548 53 51.9444C53 48.0416 53 39.5511 53 35.6483C53 34.838 52.6778 34.0606 52.1045 33.4877C51.5308 32.9147 50.7532 32.5928 49.9423 32.5928C42.1927 32.5928 14.5018 32.5928 4.58457 32.5928C3.90919 32.5928 3.2617 32.3246 2.78421 31.8474C2.30672 31.3703 2.03838 30.7232 2.03838 30.0483C2.03838 30.0478 2.03838 30.0471 2.03838 30.0464C2.03838 28.6401 3.17926 27.5 4.58653 27.5H6.11538V30.5556H47.9037V14.2594H39.7499C38.939 14.2594 38.1612 13.9375 37.5878 13.3643C37.0144 12.7913 36.6922 12.0142 36.6922 11.2039V0H9.17306C8.36216 0 7.58429 0.321933 7.01091 0.894911C6.43753 1.46813 6.11538 2.24522 6.11538 3.05556V25.463ZM12.7351 45.4515H17.1837C18.9486 45.4515 20.3794 44.0218 20.3794 42.2581V40.8787C20.3794 39.115 18.9486 37.6853 17.1837 37.6853C14.924 37.6853 11.7158 37.6853 11.7158 37.6853C11.153 37.6853 10.6968 38.1412 10.6968 38.7039V48.8889C10.6968 49.4511 11.1535 49.9075 11.7158 49.9075C12.2784 49.9075 12.7351 49.4511 12.7351 48.8889V45.4515ZM35.933 42.81V39.7222H41.2839C41.8465 39.7222 42.3032 39.2658 42.3032 38.7039C42.3032 38.1416 41.8465 37.6853 41.2839 37.6853H34.9139C34.351 37.6853 33.8946 38.1412 33.8946 38.7039V48.8889C33.8946 49.4511 34.3513 49.9075 34.9139 49.9075C35.4763 49.9075 35.933 49.4511 35.933 48.8889V44.7827C36.0144 44.8037 36.0998 44.815 36.1879 44.815H40.01C40.5726 44.815 41.0293 44.3586 41.0293 43.7964C41.0293 43.2342 40.5726 42.7778 40.01 42.7778H36.1879C36.0998 42.7778 36.0144 42.789 35.933 42.81ZM31.8667 42.7778C31.8667 41.4272 31.3298 40.1319 30.3741 39.1769C29.4184 38.2218 28.1222 37.6853 26.7704 37.6853C24.948 37.6853 23.2032 37.6853 23.2032 37.6853C22.6403 37.6853 22.1839 38.1412 22.1839 38.7039V48.8889C22.1839 49.4516 22.6403 49.9075 23.2032 49.9075H26.7704C28.1222 49.9075 29.4184 49.3709 30.3741 48.4159C31.3298 47.4608 31.8667 46.1655 31.8667 44.815V42.7778ZM29.8281 42.7778V44.815C29.8281 45.6253 29.506 46.4024 28.9326 46.9756C28.3592 47.5486 27.5813 47.8705 26.7704 47.8705H24.2225V39.7222H26.7704C27.5813 39.7222 28.3592 40.0442 28.9326 40.6171C29.506 41.1904 29.8281 41.9674 29.8281 42.7778ZM12.7351 43.4143H17.1837C17.8229 43.4143 18.3407 42.8968 18.341 42.2581V40.8787C18.3407 40.24 17.8229 39.7222 17.1837 39.7222H12.7351V43.4143ZM15.2884 26.4816H38.7306C39.2932 26.4816 39.7499 26.0253 39.7499 25.463C39.7499 24.9008 39.2932 24.4444 38.7306 24.4444H15.2884C14.7258 24.4444 14.2691 24.9008 14.2691 25.463C14.2691 26.0253 14.7258 26.4816 15.2884 26.4816ZM15.2884 20.3705H38.7306C39.2932 20.3705 39.7499 19.9142 39.7499 19.3519C39.7499 18.7897 39.2932 18.3333 38.7306 18.3333H15.2884C14.7258 18.3333 14.2691 18.7897 14.2691 19.3519C14.2691 19.9142 14.7258 20.3705 15.2884 20.3705ZM15.2884 14.2594H28.5385C29.1009 14.2594 29.5576 13.803 29.5576 13.2408C29.5576 12.6786 29.1009 12.2222 28.5385 12.2222H15.2884C14.7258 12.2222 14.2691 12.6786 14.2691 13.2408C14.2691 13.803 14.7258 14.2594 15.2884 14.2594ZM38.7306 0.679067V11.2039C38.7306 11.474 38.838 11.7331 39.0293 11.924C39.2203 12.1149 39.4796 12.2222 39.7499 12.2222H47.3942L38.7306 0.679067Z" fill="url(#paint0_linear_1_644)"/>
<defs>
<linearGradient id="paint0_linear_1_644" x1="26.5" y1="0" x2="26.5" y2="55" gradientUnits="userSpaceOnUse">
<stop stop-color="#F5C305"/>
<stop offset="1" stop-color="#268BE4"/>
</linearGradient>
</defs>
</svg>
