<svg width="47" height="58" viewBox="0 0 47 58" fill="none" xmlns="http://www.w3.org/2000/svg">
<path d="M10.5625 0.041222H39.5986C40.459 0.0412687 41.1533 0.746921 41.1533 1.59689V6.32345C30.7275 0.829071 17.5291 9.04155 17.7363 20.7942C17.5108 30.826 27.6128 38.9714 37.3594 36.6027C38.6809 36.3333 39.9665 35.8618 41.1533 35.2658V52.9817C41.1532 53.842 40.459 54.5363 39.5986 54.5363H26.8271V57.0764C26.8271 57.2109 26.755 57.3349 26.6309 57.4074C26.5117 57.4722 26.3715 57.4774 26.2471 57.4074L21.665 54.8684L17.083 57.4074C16.9586 57.4799 16.8142 57.48 16.7002 57.4074C16.5759 57.3349 16.503 57.211 16.5029 57.0764V54.5363H8.04395C3.60732 54.5362 0 50.9183 0 46.4817V9.05978C8.29284e-05 4.63348 3.22378 0.922736 7.45312 0.18673V41.5793C1.3632 42.4577 1.88381 51.2715 8.04395 51.427H16.5029V46.4826C16.5029 46.2753 16.6789 46.0989 16.8965 46.0988H26.4336C26.6512 46.0989 26.8271 46.2753 26.8271 46.4826V51.427H38.0439V41.5481H10.5625V38.4377C10.5883 38.3105 10.5262 -1.45794 10.5625 0.041222ZM37.6084 28.1027C37.2819 29.7327 36.6656 31.7333 36.0645 32.8918C35.7897 34.0088 34.8587 33.8405 33.918 33.8664C32.9851 33.8535 32.0575 34.0009 31.7725 32.8918C31.1739 31.7334 30.57 29.7327 30.2383 28.1027C32.6662 28.3101 35.1802 28.31 37.6084 28.1027ZM22.1406 26.4543C22.4828 26.5891 22.8354 26.7036 23.1982 26.8176C24.3799 27.1804 25.6656 27.4812 27.0234 27.7092C27.3163 29.4609 27.6919 31.0057 28.2568 32.5813C25.5927 31.2959 23.426 29.1287 22.1406 26.4543ZM45.7129 26.4543C44.6762 28.6 43.0697 30.4242 41.0898 31.7199C40.1413 32.2227 39.1899 33.2411 39.9492 31.5022C40.3172 30.2584 40.5975 29.0458 40.8203 27.6984C42.5877 27.4082 44.1347 27.0296 45.7129 26.4543ZM33.918 16.4504C35.4106 16.4504 36.7999 16.5237 38.0645 16.6584C38.1992 17.923 38.2715 19.3016 38.2715 20.7942C38.2715 22.2868 38.1992 23.6656 38.0645 24.9406C36.7999 25.0754 35.4106 25.1477 33.918 25.1477C32.4252 25.1477 31.0459 25.0754 29.7812 24.9406C29.6465 23.6656 29.5742 22.2868 29.5742 20.7942C29.5742 19.3016 29.6465 17.9229 29.7812 16.6584C31.046 16.5237 32.4252 16.4504 33.918 16.4504ZM26.6201 17.1145C26.5165 18.3272 26.4648 19.5607 26.4648 20.7942C26.4648 22.0277 26.5165 23.2718 26.6201 24.4846C24.9874 24.158 22.9813 23.5357 21.8203 22.9397C20.7034 22.6546 20.8716 21.74 20.8457 20.7942C20.8587 19.8405 20.7138 18.957 21.8203 18.6486C22.7429 18.2029 23.9355 17.7669 25.3867 17.3938C25.7805 17.3005 26.1849 17.2077 26.6201 17.1145ZM41.2256 17.1145C43.3014 17.5627 45.3438 18.1715 46.8857 19.1252C47.0464 20.2161 47.0308 21.382 46.8857 22.4729C45.336 23.4187 43.3066 24.0337 41.2256 24.4846C41.4329 22.0567 41.4329 19.5427 41.2256 17.1145ZM28.2568 9.00802C28.1324 9.35009 28.008 9.71356 27.9043 10.0764C27.5416 11.258 27.2411 12.5434 27.0234 13.8908C25.2586 14.1914 23.7189 14.5726 22.1406 15.135C23.4261 12.4709 25.5927 10.3038 28.2568 9.00802ZM39.5781 9.00802C42.2421 10.296 44.4243 12.4623 45.7148 15.134C45.3729 15.02 45.0205 14.8955 44.6475 14.7815C43.4658 14.4187 42.1802 14.1183 40.8223 13.9006C40.545 12.1799 40.1586 10.6017 39.5781 9.00802ZM33.918 7.72286C34.8587 7.74363 35.7872 7.58827 36.0645 8.69747C36.6604 9.8585 37.2871 11.8614 37.6084 13.4963C35.1804 13.289 32.6665 13.289 30.2383 13.4963C30.5596 11.8638 31.1894 9.85849 31.7725 8.69747C32.0575 7.59357 32.9852 7.73578 33.918 7.72286Z" fill="url(#paint0_linear_1_646)"/>
<defs>
<linearGradient id="paint0_linear_1_646" x1="20.7464" y1="5.97601" x2="25.486" y2="57.0072" gradientUnits="userSpaceOnUse">
<stop stop-color="#F5C305"/>
<stop offset="1" stop-color="#268BE4"/>
</linearGradient>
</defs>
</svg>
